<svg width="283" height="100" viewBox="0 0 283 100" fill="none" xmlns="http://www.w3.org/2000/svg">
<g clip-path="url(#clip0_113_3)">
<path d="M53.041 38.9939C66.6121 25.7031 50.1476 5.31001 32.2699 10.9785C32.183 15.2525 32.0962 20.921 32.0212 26.5501C36.5686 26.5422 43.512 26.6919 47.6015 28.2518C47.0173 29.7447 47.791 35.6259 46.7015 36.5123C45.9397 29.6423 39.7265 28.0863 31.9975 28.2833C31.9541 32.7503 31.8515 36.4847 31.9225 40.6523C36.6278 43.5988 51.1068 42.1768 53.041 38.9979V38.9939Z" fill="#3A9287"/>
<path d="M25.6304 72.2209C26.0488 69.818 25.9028 67.7618 26.0804 61.3645C7.38556 57.256 6.84871 31.3677 26.2856 27.2749C25.5475 -4.21098 30.3594 1.10297 3.34344 0.748444C1.50001 0.748444 0 2.24139 0 4.08493V70.9131C0 72.7566 1.49606 74.2496 3.34344 74.2496C7.2553 73.4145 23.0251 76.164 25.6304 72.2209Z" fill="#3A9287"/>
<path d="M21.3001 31.6001C12.904 39.1082 15.9 53.3956 26.1317 58.2014C26.2659 48.3298 26.4988 38.8127 26.3054 29.079C23.8817 29.7447 22.354 30.7059 21.3001 31.6001Z" fill="#3A9287"/>
<path d="M70.3109 0.748441C68.199 0.953278 36.3239 0.299374 35.3252 1.11085C31.2554 2.43835 32.7594 3.99826 32.3252 8.50468C72.5767 2.13109 72.8333 51.1305 31.9581 43.3979C32.0252 48.9837 32.1081 55.05 32.1949 60.0882C39.5923 60.9391 45.1423 60.427 47.3371 53.5295C48.32 54.1676 46.9621 57.9847 46.5437 60.0922C44.3015 63.3538 36.5489 62.2508 32.2344 62.3493C33.091 69.4123 30.3712 72.0279 35.3252 73.899C35.0212 74.5923 69.2727 74.1157 70.3069 74.2496C72.1504 74.2496 73.6464 72.7566 73.6464 70.9131V4.08493C73.6464 2.24139 72.1504 0.748441 70.303 0.748441H70.3109Z" fill="#3A9287"/>
<path d="M90.3557 29.4296C90.3557 14.7168 90.3557 12.0066 90.1623 8.90649C89.9688 5.61727 89.1912 4.06523 85.9899 3.3877C85.2122 3.19468 83.5662 3.0962 82.2083 3.0962C81.1425 3.0962 80.5583 2.90318 80.5583 2.22564C80.5583 1.5481 81.2372 1.35508 82.6938 1.35508C87.8333 1.35508 93.9478 1.64658 95.886 1.64658C100.639 1.64658 104.424 1.35508 107.72 1.35508C125.278 1.35508 128.381 10.7461 128.381 15.8749C128.381 23.8123 123.822 28.5551 118.485 32.8173C126.439 35.5275 136.141 42.4013 136.141 53.7265C136.141 64.0865 128.089 74.8286 110.243 74.8286C109.078 74.8286 106.264 74.6356 103.453 74.5371C100.544 74.3441 97.6346 74.2456 96.1781 74.2456C95.1123 74.2456 92.9767 74.2456 90.6478 74.3441C88.4175 74.3441 85.8951 74.5371 83.953 74.5371C82.6938 74.5371 82.0109 74.2456 82.0109 73.5681C82.0109 73.0836 82.3977 72.7921 83.5622 72.7921C85.0188 72.7921 86.1833 72.5991 87.0557 72.406C88.9938 72.02 89.4794 69.8889 89.8701 67.0803C90.3557 63.015 90.3557 55.3652 90.3557 46.4626V29.4257V29.4296ZM101.997 31.0762C101.997 31.8522 102.289 32.0452 102.675 32.1398C103.548 32.3328 105.004 32.4313 107.235 32.4313C110.436 32.4313 112.572 32.0452 114.218 30.5917C116.74 28.559 118.197 25.0729 118.197 20.3301C118.197 13.8462 114.415 5.32577 106.07 5.32577C104.712 5.32577 103.84 5.32577 102.869 5.51879C102.19 5.71181 101.997 6.09785 101.997 7.16537V31.0762ZM114.802 38.8206C112.765 37.3671 110.535 36.6895 106.749 36.4965C105.004 36.398 104.033 36.398 102.577 36.398C102.19 36.398 101.997 36.591 101.997 37.0756V60.0173C101.997 66.4067 102.289 68.0533 105.391 69.3099C108.008 70.3734 110.243 70.4719 112.473 70.4719C116.839 70.4719 124.208 68.1478 124.208 58.0793C124.208 52.0759 122.172 43.9455 114.798 38.8167L114.802 38.8206Z" fill="#3A9287"/>
<path d="M139.824 37.9461C139.824 21.3937 150.786 0 179.886 0C204.04 0 219.076 14.0353 219.076 36.205C219.076 58.3747 203.555 75.8962 178.915 75.8962C151.074 75.8962 139.824 55.0815 139.824 37.9501V37.9461ZM205.497 39.7857C205.497 18.1005 192.984 4.64823 177.076 4.64823C165.921 4.64823 153.214 10.8446 153.214 34.9484C153.214 55.0815 164.369 71.0549 182.993 71.0549C189.782 71.0549 205.497 67.7618 205.497 39.7857Z" fill="#3A9287"/>
<path d="M244.88 6.77539L230.425 7.16143C224.8 7.35445 222.471 7.83897 221.014 9.97006C220.043 11.4236 219.558 12.5857 219.364 13.3578C219.171 14.1298 218.879 14.5198 218.298 14.5198C217.619 14.5198 217.426 14.0353 217.426 12.9717C217.426 11.4236 219.269 2.61562 219.463 1.8396C219.755 0.582999 220.043 0 220.627 0C221.405 0 222.372 0.969038 224.8 1.16206C227.614 1.45356 231.297 1.64658 234.498 1.64658H272.91C276.013 1.64658 278.149 1.35508 279.605 1.16206C281.062 0.870559 281.836 0.677539 282.222 0.677539C282.901 0.677539 283 1.2566 283 2.71016C283 4.74277 282.708 11.4236 282.708 13.9408C282.609 14.9098 282.416 15.4889 281.836 15.4889C281.058 15.4889 280.864 15.0043 280.77 13.5547L280.671 12.4911C280.478 9.974 277.857 7.26385 269.224 7.07083L257.003 6.77933V46.4666C257.003 55.373 257.003 63.019 257.488 67.1827C257.78 69.8929 258.36 72.024 261.27 72.41C262.628 72.603 264.763 72.796 266.216 72.796C267.282 72.796 267.767 73.0875 267.767 73.5721C267.767 74.2496 266.989 74.5411 265.924 74.5411C259.521 74.5411 253.41 74.2496 250.695 74.2496C248.464 74.2496 242.354 74.5411 238.473 74.5411C237.214 74.5411 236.531 74.2496 236.531 73.5721C236.531 73.0875 236.918 72.796 238.083 72.796C239.539 72.796 240.704 72.603 241.576 72.41C243.518 72.024 244.099 69.8929 244.391 67.0842C244.876 63.019 244.876 55.3691 244.876 46.4666V6.77539H244.88Z" fill="#3A9287"/>
<path d="M26.258 88.4267C26.9646 89.0215 27.3199 89.8409 27.3199 90.8808C27.3199 91.9207 26.9646 92.7362 26.258 93.327C25.5514 93.9179 24.5725 94.2133 23.3251 94.2133H20.6961V97.2938H19.6619V87.5325H23.3251C24.5725 87.5325 25.5514 87.8319 26.258 88.4267ZM25.5159 92.6731C26.0291 92.2516 26.2856 91.6529 26.2856 90.8808C26.2856 90.1087 26.0291 89.4824 25.5159 89.0609C25.0027 88.6394 24.2646 88.4267 23.2935 88.4267H20.6961V93.3073H23.2935C24.2606 93.3073 25.0027 93.0946 25.5159 92.6731Z" fill="#3A9287"/>
<path d="M31.1567 90.282C31.6186 90.0299 32.187 89.9039 32.8699 89.9039V90.865L32.6331 90.8493C31.8594 90.8493 31.2554 91.0856 30.8173 91.5623C30.3791 92.035 30.162 92.7007 30.162 93.5555V97.2938H29.1712V89.959H30.1225V91.3968C30.3554 90.9044 30.7028 90.5302 31.1646 90.282H31.1567Z" fill="#3A9287"/>
<path d="M35.6765 96.8841C35.1081 96.565 34.662 96.1199 34.3344 95.5527C34.0068 94.9854 33.8449 94.3433 33.8449 93.6264C33.8449 92.9095 34.0068 92.2674 34.3344 91.7001C34.662 91.1329 35.1081 90.6917 35.6765 90.3766C36.2449 90.0614 36.8844 89.9039 37.591 89.9039C38.2976 89.9039 38.937 90.0614 39.5055 90.3766C40.0739 90.6917 40.5199 91.1329 40.8397 91.7001C41.1594 92.2674 41.3213 92.9095 41.3213 93.6264C41.3213 94.3433 41.1594 94.9854 40.8397 95.5527C40.5199 96.1199 40.0739 96.565 39.5055 96.8841C38.937 97.2032 38.2976 97.3647 37.591 97.3647C36.8844 97.3647 36.2449 97.2032 35.6765 96.8841ZM38.9963 96.1317C39.4107 95.8954 39.7344 95.5566 39.9673 95.1194C40.2002 94.6821 40.3147 94.1858 40.3147 93.6264C40.3147 93.067 40.1963 92.5707 39.9673 92.1335C39.7344 91.6962 39.4107 91.3614 38.9963 91.1211C38.5818 90.8847 38.112 90.7666 37.591 90.7666C37.0699 90.7666 36.6002 90.8847 36.1857 91.1211C35.7712 91.3574 35.4436 91.6962 35.2068 92.1335C34.9699 92.5707 34.8515 93.067 34.8515 93.6264C34.8515 94.1858 34.9699 94.6821 35.2068 95.1194C35.4436 95.5566 35.7712 95.8914 36.1857 96.1317C36.6002 96.372 37.0699 96.4863 37.591 96.4863C38.112 96.4863 38.5818 96.3681 38.9963 96.1317Z" fill="#3A9287"/>
<path d="M49.0068 90.3726C49.5674 90.6838 50.0016 91.125 50.3213 91.6923C50.6371 92.2595 50.795 92.9055 50.795 93.6303C50.795 94.3552 50.6371 95.0012 50.3213 95.5684C50.0055 96.1357 49.5674 96.5769 49.0068 96.892C48.4463 97.2071 47.8226 97.3647 47.1358 97.3647C46.52 97.3647 45.9673 97.2347 45.4818 96.9747C44.9923 96.7147 44.5976 96.3366 44.3015 95.8442V97.2938H43.3502V86.9456H44.341V91.3535C44.6489 90.8808 45.0436 90.5184 45.5213 90.2742C46.0029 90.0299 46.5397 89.9039 47.1358 89.9039C47.8266 89.9039 48.4502 90.0615 49.0068 90.3726ZM48.4621 96.1317C48.8805 95.8954 49.2081 95.5566 49.4489 95.1194C49.6858 94.6821 49.8042 94.1858 49.8042 93.6264C49.8042 93.067 49.6858 92.5707 49.4489 92.1335C49.2121 91.6962 48.8845 91.3614 48.4621 91.1211C48.0437 90.8847 47.5779 90.7666 47.0647 90.7666C46.5516 90.7666 46.0739 90.8847 45.6594 91.1211C45.245 91.3574 44.9173 91.6962 44.6805 92.1335C44.4436 92.5707 44.3252 93.067 44.3252 93.6264C44.3252 94.1858 44.4436 94.6821 44.6805 95.1194C44.9173 95.5566 45.245 95.8914 45.6594 96.1317C46.0739 96.3681 46.5437 96.4863 47.0647 96.4863C47.5858 96.4863 48.0437 96.3681 48.4621 96.1317Z" fill="#3A9287"/>
<path d="M57.5608 90.6208C58.074 91.1014 58.3306 91.8065 58.3306 92.748V97.2938H57.3792V96.1514C57.1542 96.5335 56.8266 96.829 56.3924 97.0456C55.9582 97.2583 55.445 97.3647 54.849 97.3647C54.0279 97.3647 53.3766 97.1677 52.8911 96.7777C52.4055 96.3878 52.1647 95.8717 52.1647 95.2297C52.1647 94.5876 52.3897 94.103 52.8437 93.7249C53.2937 93.3428 54.0161 93.1537 55.0029 93.1537H57.3358V92.7086C57.3358 92.0783 57.1582 91.5938 56.8029 91.2668C56.4476 90.936 55.9305 90.7705 55.2516 90.7705C54.7858 90.7705 54.3397 90.8493 53.9095 90.999C53.4792 91.1526 53.1121 91.3653 52.8042 91.6332L52.3582 90.8926C52.7292 90.5775 53.1792 90.3333 53.7003 90.1599C54.2213 89.9866 54.77 89.9039 55.3503 89.9039C56.3095 89.9039 57.0477 90.1442 57.5569 90.6208H57.5608ZM56.4437 96.1987C56.8424 95.9426 57.1424 95.5724 57.3398 95.0918V93.8943H55.0345C53.7753 93.8943 53.1476 94.3315 53.1476 95.206C53.1476 95.6354 53.3095 95.9702 53.6371 96.2184C53.9647 96.4626 54.4187 96.5887 55.0069 96.5887C55.595 96.5887 56.045 96.4626 56.4477 96.2066L56.4437 96.1987Z" fill="#3A9287"/>
<path d="M64.895 96.8487C64.7095 97.0141 64.4766 97.1441 64.2042 97.2308C63.9279 97.3174 63.6437 97.3647 63.3437 97.3647C62.6529 97.3647 62.124 97.1795 61.749 96.8053C61.3779 96.435 61.1884 95.9072 61.1884 95.2297V90.7941H59.874V89.959H61.1884V88.3558H62.1792V89.959H64.4135V90.7941H62.1792V95.1745C62.1792 95.6118 62.2898 95.9426 62.5069 96.1711C62.724 96.3996 63.0398 96.5138 63.4503 96.5138C63.6556 96.5138 63.8529 96.4823 64.0424 96.4153C64.2319 96.3484 64.3977 96.2578 64.5398 96.1357L64.8871 96.8487H64.895Z" fill="#3A9287"/>
<path d="M72.8332 93.9337H66.6832C66.7385 94.6979 67.0306 95.3124 67.5635 95.7811C68.0964 96.2499 68.7635 96.4863 69.5766 96.4863C70.0345 96.4863 70.453 96.4035 70.8359 96.242C71.2188 96.0805 71.5503 95.8402 71.8267 95.5251L72.3872 96.1672C72.0596 96.5572 71.653 96.8565 71.1635 97.0614C70.674 97.2662 70.1372 97.3686 69.549 97.3686C68.7951 97.3686 68.124 97.2071 67.5437 96.8881C66.9595 96.569 66.5056 96.1238 66.1819 95.5566C65.8543 94.9894 65.6924 94.3473 65.6924 93.6303C65.6924 92.9134 65.8503 92.2713 66.1622 91.7041C66.474 91.1368 66.9043 90.6957 67.449 90.3805C67.9937 90.0654 68.6056 89.9078 69.2885 89.9078C69.9714 89.9078 70.5793 90.0654 71.1201 90.3805C71.6609 90.6957 72.0832 91.1368 72.3911 91.7001C72.699 92.2634 72.853 92.9055 72.853 93.6303L72.8372 93.9376L72.8332 93.9337ZM67.5003 91.4323C67.0187 91.8853 66.7464 92.4722 66.6832 93.197H71.8977C71.8306 92.4722 71.5582 91.8853 71.0806 91.4323C70.599 90.9832 70.003 90.7547 69.2845 90.7547C68.5661 90.7547 67.9819 90.9793 67.5043 91.4323H67.5003Z" fill="#3A9287"/>
<path d="M79.3543 97.0299C78.6872 96.7975 78.174 96.4902 77.8109 96.1081L78.2175 95.3124C78.5727 95.6669 79.0425 95.9505 79.6306 96.1711C80.2188 96.3917 80.8227 96.4981 81.4464 96.4981C82.3227 96.4981 82.978 96.3366 83.4162 96.0175C83.8543 95.6984 84.0714 95.2809 84.0714 94.7688C84.0714 94.3788 83.953 94.0676 83.7162 93.8352C83.4793 93.6028 83.1872 93.4255 82.8438 93.2995C82.5004 93.1734 82.0188 93.0355 81.403 92.8898C80.6688 92.7046 80.0806 92.5234 79.6425 92.3541C79.2043 92.1807 78.8293 91.9207 78.5175 91.5662C78.2056 91.2117 78.0477 90.7351 78.0477 90.1284C78.0477 89.636 78.178 89.187 78.4385 88.7812C78.699 88.3755 79.1017 88.0525 79.6385 87.8122C80.1793 87.5719 80.8504 87.4498 81.6517 87.4498C82.2122 87.4498 82.757 87.5286 83.2938 87.6782C83.8306 87.8319 84.2925 88.0446 84.6833 88.3125L84.3359 89.1357C83.9254 88.8679 83.4872 88.663 83.0214 88.5291C82.5556 88.3952 82.0977 88.3282 81.6517 88.3282C80.7951 88.3282 80.1477 88.4937 79.7175 88.8246C79.2833 89.1554 79.0662 89.5809 79.0662 90.1008C79.0662 90.4908 79.1846 90.806 79.4214 91.0423C79.6583 91.2787 79.9583 91.4599 80.3175 91.5859C80.6767 91.712 81.1583 91.8498 81.7622 91.9956C82.4806 92.1728 83.0609 92.3462 83.503 92.5195C83.9451 92.6928 84.3201 92.9528 84.628 93.2995C84.9359 93.6461 85.0899 94.1188 85.0899 94.7136C85.0899 95.206 84.9557 95.6551 84.6912 96.0608C84.4267 96.4666 84.0162 96.7856 83.4675 97.022C82.9188 97.2583 82.2438 97.3765 81.4425 97.3765C80.7162 97.3765 80.0175 97.2623 79.3543 97.0259V97.0299Z" fill="#3A9287"/>
<path d="M87.1149 88.147C86.9767 88.0091 86.9057 87.8398 86.9057 87.6467C86.9057 87.4537 86.9767 87.3001 87.1149 87.1583C87.253 87.0204 87.4267 86.9495 87.632 86.9495C87.8373 86.9495 88.0109 87.0165 88.1491 87.1504C88.2873 87.2843 88.3583 87.4458 88.3583 87.631C88.3583 87.8358 88.2873 88.0091 88.1491 88.147C88.0109 88.2849 87.8373 88.3558 87.632 88.3558C87.4267 88.3558 87.253 88.2849 87.1149 88.147ZM87.1307 89.959H88.1215V97.2938H87.1307V89.959Z" fill="#3A9287"/>
<path d="M102.229 90.6996C102.754 91.2314 103.019 92.0113 103.019 93.0434V97.2977H102.028V93.1419C102.028 92.3816 101.843 91.7986 101.475 91.4008C101.108 91.0029 100.587 90.802 99.9162 90.802C99.1505 90.802 98.5505 91.0384 98.1123 91.5071C97.6741 91.9759 97.457 92.6259 97.457 93.4531V97.3017H96.4662V93.1458C96.4662 92.3856 96.2807 91.8026 95.9136 91.4047C95.5465 91.0069 95.0215 90.806 94.3425 90.806C93.5886 90.806 92.9886 91.0423 92.5465 91.5111C92.1044 91.9798 91.8833 92.6298 91.8833 93.457V97.3056H90.8925V89.9708H91.8438V91.3102C92.1044 90.865 92.4675 90.5184 92.9333 90.2781C93.3991 90.0378 93.936 89.9157 94.5399 89.9157C95.1439 89.9157 95.6886 90.0457 96.1386 90.3057C96.5886 90.5657 96.9281 90.9517 97.1531 91.4638C97.4215 90.9793 97.8123 90.6011 98.3215 90.3254C98.8307 90.0496 99.411 89.9157 100.062 89.9157C100.986 89.9157 101.708 90.1796 102.233 90.7114L102.229 90.6996Z" fill="#3A9287"/>
<path d="M111.376 90.3726C111.936 90.6838 112.37 91.125 112.69 91.6923C113.006 92.2595 113.164 92.9055 113.164 93.6303C113.164 94.3552 113.006 95.0169 112.69 95.5842C112.374 96.1514 111.936 96.5887 111.383 96.9038C110.831 97.215 110.203 97.3726 109.504 97.3726C108.908 97.3726 108.372 97.2505 107.89 97.0023C107.408 96.7581 107.018 96.3956 106.71 95.9229V100.008H105.719V89.9669H106.67V91.4165C106.966 90.932 107.361 90.5617 107.85 90.3017C108.34 90.0418 108.893 89.9118 109.504 89.9118C110.195 89.9118 110.819 90.0693 111.376 90.3805V90.3726ZM110.831 96.1317C111.249 95.8954 111.577 95.5566 111.818 95.1194C112.054 94.6821 112.173 94.1858 112.173 93.6264C112.173 93.067 112.054 92.5746 111.818 92.1413C111.581 91.708 111.253 91.3732 110.831 91.129C110.412 90.8887 109.947 90.7666 109.433 90.7666C108.92 90.7666 108.443 90.8887 108.028 91.129C107.614 91.3693 107.286 91.708 107.049 92.1413C106.812 92.5746 106.694 93.067 106.694 93.6264C106.694 94.1858 106.812 94.6821 107.049 95.1194C107.286 95.5566 107.614 95.8914 108.028 96.1317C108.443 96.3681 108.912 96.4863 109.433 96.4863C109.954 96.4863 110.412 96.3681 110.831 96.1317Z" fill="#3A9287"/>
<path d="M115.189 86.9495H116.179V97.2977H115.189V86.9495Z" fill="#3A9287"/>
<path d="M118.935 88.147C118.797 88.0091 118.726 87.8398 118.726 87.6467C118.726 87.4537 118.797 87.3001 118.935 87.1583C119.073 87.0204 119.247 86.9495 119.452 86.9495C119.657 86.9495 119.831 87.0165 119.969 87.1504C120.107 87.2843 120.178 87.4458 120.178 87.631C120.178 87.8358 120.107 88.0091 119.969 88.147C119.831 88.2849 119.657 88.3558 119.452 88.3558C119.247 88.3558 119.073 88.2849 118.935 88.147ZM118.951 89.959H119.941V97.2938H118.951V89.959Z" fill="#3A9287"/>
<path d="M124.169 88.0643C123.952 88.2967 123.841 88.6394 123.841 89.0963V89.963H126.103V90.7981H123.869V97.2977H122.878V90.7981H121.564V89.963H122.878V89.057C122.878 88.3873 123.072 87.8594 123.458 87.4655C123.845 87.0756 124.394 86.8786 125.101 86.8786C125.381 86.8786 125.649 86.918 125.91 86.9968C126.17 87.0756 126.391 87.1898 126.565 87.3395L126.23 88.08C125.941 87.8398 125.578 87.7176 125.14 87.7176C124.702 87.7176 124.386 87.8358 124.169 88.0643ZM128.551 88.147C128.412 88.0091 128.341 87.8398 128.341 87.6467C128.341 87.4537 128.412 87.3001 128.551 87.1583C128.689 87.0204 128.862 86.9495 129.068 86.9495C129.273 86.9495 129.447 87.0165 129.585 87.1504C129.723 87.2843 129.794 87.4458 129.794 87.631C129.794 87.8358 129.723 88.0091 129.585 88.147C129.447 88.2849 129.273 88.3558 129.068 88.3558C128.862 88.3558 128.689 88.2849 128.551 88.147ZM128.566 89.959H129.557V97.2938H128.566V89.959Z" fill="#3A9287"/>
<path d="M138.723 93.9337H132.573C132.628 94.6979 132.92 95.3124 133.453 95.7811C133.986 96.2499 134.653 96.4863 135.466 96.4863C135.924 96.4863 136.343 96.4035 136.726 96.242C137.109 96.0805 137.44 95.8402 137.716 95.5251L138.277 96.1672C137.949 96.5572 137.543 96.8565 137.053 97.0614C136.564 97.2662 136.027 97.3686 135.439 97.3686C134.685 97.3686 134.014 97.2071 133.434 96.8881C132.849 96.569 132.395 96.1238 132.072 95.5566C131.744 94.9894 131.582 94.3473 131.582 93.6303C131.582 92.9134 131.74 92.2713 132.052 91.7041C132.364 91.1368 132.794 90.6957 133.339 90.3805C133.884 90.0654 134.495 89.9078 135.178 89.9078C135.861 89.9078 136.469 90.0654 137.01 90.3805C137.551 90.6957 137.973 91.1368 138.281 91.7001C138.589 92.2634 138.743 92.9055 138.743 93.6303L138.727 93.9376L138.723 93.9337ZM133.39 91.4323C132.909 91.8853 132.636 92.4722 132.573 93.197H137.787C137.72 92.4722 137.448 91.8853 136.97 91.4323C136.489 90.9832 135.893 90.7547 135.174 90.7547C134.456 90.7547 133.872 90.9793 133.394 91.4323H133.39Z" fill="#3A9287"/>
<path d="M147.47 86.9495V97.2977H146.519V95.8481C146.219 96.3405 145.828 96.7187 145.339 96.9787C144.849 97.2386 144.297 97.3686 143.681 97.3686C142.99 97.3686 142.366 97.2111 141.81 96.8959C141.249 96.5808 140.811 96.1396 140.495 95.5724C140.18 95.0051 140.022 94.3591 140.022 93.6343C140.022 92.9095 140.18 92.2635 140.495 91.6962C140.811 91.129 141.249 90.6917 141.81 90.3766C142.37 90.0654 142.994 89.9078 143.681 89.9078C144.277 89.9078 144.814 90.0299 145.295 90.2781C145.777 90.5263 146.168 90.8847 146.476 91.3574V86.9495H147.466H147.47ZM145.157 96.1317C145.572 95.8954 145.899 95.5566 146.136 95.1194C146.373 94.6821 146.491 94.1858 146.491 93.6264C146.491 93.067 146.373 92.5707 146.136 92.1335C145.899 91.6962 145.572 91.3614 145.157 91.1211C144.743 90.8847 144.281 90.7666 143.768 90.7666C143.255 90.7666 142.777 90.8847 142.362 91.1211C141.948 91.3574 141.62 91.6962 141.384 92.1335C141.147 92.5707 141.028 93.067 141.028 93.6264C141.028 94.1858 141.147 94.6821 141.384 95.1194C141.62 95.5566 141.948 95.8914 142.362 96.1317C142.777 96.372 143.247 96.4863 143.768 96.4863C144.289 96.4863 144.743 96.3681 145.157 96.1317Z" fill="#3A9287"/>
<path d="M164.689 89.959L161.91 97.2938H160.974L158.653 91.2826L156.332 97.2938H155.397L152.63 89.959H153.581L155.886 96.1908L158.247 89.959H159.099L161.448 96.1908L163.781 89.959H164.689Z" fill="#3A9287"/>
<path d="M166.169 88.147C166.031 88.0091 165.96 87.8398 165.96 87.6467C165.96 87.4537 166.031 87.3001 166.169 87.1583C166.307 87.0165 166.481 86.9495 166.686 86.9495C166.892 86.9495 167.065 87.0165 167.203 87.1504C167.342 87.2843 167.413 87.4458 167.413 87.631C167.413 87.8358 167.342 88.0091 167.203 88.147C167.065 88.2849 166.892 88.3558 166.686 88.3558C166.481 88.3558 166.307 88.2849 166.169 88.147ZM166.185 89.959H167.176V97.2938H166.185V89.959Z" fill="#3A9287"/>
<path d="M173.811 96.8487C173.626 97.0141 173.393 97.1441 173.121 97.2308C172.844 97.3174 172.56 97.3647 172.26 97.3647C171.569 97.3647 171.04 97.1795 170.665 96.8053C170.294 96.435 170.105 95.9072 170.105 95.2297V90.7941H168.79V89.959H170.105V88.3558H171.096V89.959H173.33V90.7941H171.096V95.1745C171.096 95.6118 171.206 95.9426 171.423 96.1711C171.64 96.3996 171.956 96.5138 172.367 96.5138C172.572 96.5138 172.769 96.4823 172.959 96.4153C173.148 96.3484 173.314 96.2578 173.456 96.1357L173.807 96.8487H173.811Z" fill="#3A9287"/>
<path d="M181.56 90.7075C182.105 91.2432 182.377 92.0192 182.377 93.0434V97.2977H181.386V93.1419C181.386 92.3816 181.197 91.7986 180.814 91.4008C180.431 91.0029 179.886 90.802 179.18 90.802C178.386 90.802 177.763 91.0384 177.301 91.5071C176.839 91.9759 176.61 92.6259 176.61 93.4531V97.3017H175.619V86.9534H176.61V91.2471C176.878 90.8178 177.253 90.4908 177.727 90.2584C178.201 90.026 178.746 89.9118 179.361 89.9118C180.285 89.9118 181.019 90.1796 181.564 90.7154L181.56 90.7075Z" fill="#3A9287"/>
<path d="M188.946 87.5325H189.98V97.2938H188.946V87.5325Z" fill="#3A9287"/>
<path d="M198.905 90.7075C199.45 91.2432 199.722 92.0192 199.722 93.0434V97.2977H198.731V93.1419C198.731 92.3816 198.542 91.7986 198.159 91.4008C197.776 91.0029 197.231 90.802 196.525 90.802C195.731 90.802 195.107 91.0384 194.646 91.5071C194.184 91.9759 193.955 92.6259 193.955 93.4531V97.3017H192.964V89.9669H193.915V91.3181C194.184 90.8729 194.559 90.5263 195.04 90.2781C195.522 90.0339 196.079 89.9078 196.71 89.9078C197.634 89.9078 198.368 90.1757 198.913 90.7114L198.905 90.7075Z" fill="#3A9287"/>
<path d="M206.29 96.8487C206.105 97.0141 205.872 97.1441 205.6 97.2308C205.323 97.3174 205.039 97.3647 204.739 97.3647C204.048 97.3647 203.519 97.1795 203.144 96.8053C202.773 96.435 202.584 95.9072 202.584 95.2297V90.7941H201.269V89.959H202.584V88.3558H203.575V89.959H205.809V90.7941H203.575V95.1745C203.575 95.6118 203.685 95.9426 203.902 96.1711C204.119 96.3996 204.435 96.5138 204.846 96.5138C205.051 96.5138 205.248 96.4823 205.438 96.4153C205.627 96.3484 205.793 96.2578 205.935 96.1357L206.286 96.8487H206.29Z" fill="#3A9287"/>
<path d="M214.225 93.9337H208.075C208.13 94.6979 208.426 95.3124 208.955 95.7811C209.488 96.2499 210.155 96.4863 210.968 96.4863C211.426 96.4863 211.844 96.4035 212.227 96.242C212.61 96.0805 212.942 95.8402 213.218 95.5251L213.779 96.1672C213.451 96.5572 213.044 96.8565 212.555 97.0614C212.065 97.2662 211.529 97.3686 210.94 97.3686C210.187 97.3686 209.515 97.2071 208.935 96.8881C208.351 96.569 207.897 96.1238 207.573 95.5566C207.25 94.9894 207.084 94.3473 207.084 93.6303C207.084 92.9134 207.238 92.2713 207.554 91.7041C207.865 91.1368 208.296 90.6957 208.84 90.3805C209.385 90.0654 209.997 89.9078 210.68 89.9078C211.363 89.9078 211.971 90.0654 212.512 90.3805C213.052 90.6957 213.475 91.1368 213.783 91.7001C214.09 92.2634 214.244 92.9055 214.244 93.6303L214.229 93.9376L214.225 93.9337ZM208.892 91.4323C208.41 91.8853 208.138 92.4722 208.075 93.197H213.289C213.222 92.4722 212.95 91.8853 212.472 91.4323C211.99 90.9832 211.394 90.7547 210.676 90.7547C209.958 90.7547 209.373 90.9793 208.896 91.4323H208.892Z" fill="#3A9287"/>
<path d="M216.265 86.9495H217.256V97.2977H216.265V86.9495Z" fill="#3A9287"/>
<path d="M220.027 86.9495H221.018V97.2977H220.027V86.9495Z" fill="#3A9287"/>
<path d="M223.769 88.147C223.631 88.0091 223.56 87.8398 223.56 87.6467C223.56 87.4537 223.631 87.3001 223.769 87.1583C223.908 87.0165 224.081 86.9495 224.287 86.9495C224.492 86.9495 224.666 87.0165 224.804 87.1504C224.942 87.2843 225.013 87.4458 225.013 87.631C225.013 87.8358 224.942 88.0091 224.804 88.147C224.666 88.2849 224.492 88.3558 224.287 88.3558C224.081 88.3558 223.908 88.2849 223.769 88.147ZM223.785 89.959H224.776V97.2938H223.785V89.959Z" fill="#3A9287"/>
<path d="M237.55 94.686H232.098L230.926 97.2938H229.848L234.321 87.5325H235.339L239.812 97.2938H238.722L237.55 94.686ZM237.171 93.8509L234.822 88.6079L232.473 93.8509H237.167H237.171Z" fill="#3A9287"/>
<path d="M241.434 87.5325H242.468V97.2938H241.434V87.5325Z" fill="#3A9287"/>
</g>
<defs>
<clipPath id="clip0_113_3">
<rect width="283" height="100" fill="white"/>
</clipPath>
</defs>
</svg>
